<svg xmlns="http://www.w3.org/2000/svg" width="200" height="100" viewBox="0 0 200 100"><defs><style>.cls-1{fill:#fd7d3d;}.cls-2,.cls-3{fill:none;}.cls-2{stroke:#fd7d3d;stroke-miterlimit:10;stroke-width:2.4px;}</style></defs><title>红色-轮动抄底自动止盈</title><g id="图层_9" data-name="图层 9"><path class="cls-1" d="M52.18,45.77V40.91q-2.54.32-4.87.53L47,38.9l2.65-.32q1.69-.1,2.54-.21V35.93H49.43q-2.22-.1-1.8-2.54L49,27.47h-1.9V24.93h2.54l.74-2.86h2.86l-.74,2.86h5v2.54H51.87l-1.37,6h1.69V29h3V33.5h2v2.43h-2v2q1.27-.21,2.64-.32v2.54a11.47,11.47,0,0,0-1.27.11,12,12,0,0,0-1.37.21v5.29Zm6.35-12.48L56.2,31.91a41.45,41.45,0,0,0,4-7.83,2.64,2.64,0,0,1,3-1.9h2.33a2.92,2.92,0,0,1,2.86,1.9,42.07,42.07,0,0,0,3.81,7.3l-2.65,1.48a72.08,72.08,0,0,1-3.7-7.41q-.32-.85-1-.85H63.82a1.16,1.16,0,0,0-1.16.85,44.39,44.39,0,0,1-3.17,6.35h2.86v4.65a12.66,12.66,0,0,0,4.87-3.17h3.7a19.17,19.17,0,0,1-8.57,5.92v3c.07.78.42,1.16,1.06,1.16h7.51l-.85,2.33H62.13q-2.86,0-2.86-3V32A12,12,0,0,1,58.53,33.29Z"/><path class="cls-1" d="M76.83,43.44q-2.22,0-1.8-2.22l2.33-8.36H74.29V30.22H86.78v2.64H80.54L78.1,41.22h5.08l-1,2.22Zm-1.37-18.2V22.6H85.72v2.64Zm8.46,18.94q-.85-4.76-1.9-8.78h2.86q.64,2.22,1.9,7.72a38.11,38.11,0,0,0,2.43-13.75H86.46V26.73h2.75V21.86h3.07v4.87h3.28q2.64.21,2.86,3.17V43.23q-.21,2-2.65,2.22h-3.6l-1-2.33h3.17a.84.84,0,0,0,1-1V30.33a.84.84,0,0,0-1-1H92.28a36.45,36.45,0,0,1-3.7,16.71l-2.75-1a2.33,2.33,0,0,0,.42-1Z"/><path class="cls-1" d="M101.59,37.73l-.32-2.64q1.48-.53,3.07-1V29.06h-2.86V26.73h2.86V22.18h3v4.55h2.54v2.33H107.3v4q1.16-.32,2.12-.63l.11,1.48a41.52,41.52,0,0,0,2.54-9.2h2.86a39.26,39.26,0,0,1-3.07,11.42l-2.64-1-1.9.63v7.3q-.11,2.22-2.64,2.33h-2.54l-.63-2.22h1.8a.94.94,0,0,0,1.06-1.06v-5.4Zm14.49-1V22h3V36.78a21.76,21.76,0,0,0,2.12-3.7h1a37.64,37.64,0,0,1-1.9-8.36h2.86a41.86,41.86,0,0,0,3.07,10.37l-2.86,1.06-.11-.32q-3.7,7.51-13.86,10.05L108,43.44q7.72-2.22,11-6.67Z"/><path class="cls-1" d="M131,45.77l-2.86-.85a22.26,22.26,0,0,0,1.8-9v-9a2.65,2.65,0,0,1,2.86-2.86h6.77q-.11-.32-.32-1.06c-.14-.49-.25-.85-.32-1.06h3.28l.63,1.59a3.3,3.3,0,0,1,.11.53h9.63v2.43H134.06a1.13,1.13,0,0,0-1.16,1.06v8A27.61,27.61,0,0,1,131,45.77Zm20.52,0q-6.14-2.22-6.56-7.3a4.67,4.67,0,0,0-.11-.85,1.84,1.84,0,0,0-.11-.74H138v5.18q.1,1.16,1.06,1.16h2.12l-.74,2.22h-2.86a2.14,2.14,0,0,1-2.33-2.22V31.91A2.8,2.8,0,0,1,138,29q8.78-.85,13.22-1.69l.42,2.43c-.35.07-.81.14-1.38.21a35.62,35.62,0,0,1-3.6.63c.07.42.18,1.09.32,2s.14,1.48.21,1.9h5.29v2.43h-5a.85.85,0,0,1,.11.53,1.79,1.79,0,0,1,.11.53q.32,3.92,5.18,5.5ZM138,32.44v2h6.45q-.32-1.9-.11-.53-.21-1.37-.42-3.07a17.32,17.32,0,0,0-2.22.21q-1.69.11-2.54.21C138.37,31.42,138,31.81,138,32.44Zm4.55,13.22q-.85-3-2-6.35h3q1.06,2.86,2,6.35Z"/><path class="cls-1" d="M51.87,77.74q-2.75-.21-3-2.65v-15q.21-2.54,3-2.75h3.91L56,56.9q.42-1.48.63-2.43H60a15.21,15.21,0,0,1-.85,2.86H67a2.85,2.85,0,0,1,2.86,3v15q-.21,2.22-3,2.43ZM52,63.35H66.78V60.81a1.08,1.08,0,0,0-1.06-1.06H53A1.13,1.13,0,0,0,52,60.92Zm0,5.92H66.78v-3.6H52Zm13.75,6.24c.7,0,1.06-.39,1.06-1.16V71.61H52v2.75c.07.78.42,1.16,1.06,1.16Z"/><path class="cls-1" d="M76.83,75.94q-2.22,0-1.8-2.22l2.33-8.36H74.29V62.72H86.78v2.64H80.54L78.1,73.72h5.08l-1,2.22Zm-1.37-18.2V55.1H85.72v2.64Zm8.46,18.94q-.85-4.76-1.9-8.78h2.86q.64,2.22,1.9,7.72a38.11,38.11,0,0,0,2.43-13.75H86.46V59.23h2.75V54.36h3.07v4.87h3.28q2.64.21,2.86,3.17V75.73q-.21,2-2.65,2.22h-3.6l-1-2.33h3.17a.84.84,0,0,0,1-1V62.82a.84.84,0,0,0-1-1H92.28a36.45,36.45,0,0,1-3.7,16.71l-2.75-1a2.33,2.33,0,0,0,.42-1Z"/><path class="cls-1" d="M101.59,77.63V75.1h3V58.7h3.17V75.1H113V54.57h3.17V61h8.25v2.64h-8.25V75.1h9.31v2.54Z"/><path class="cls-1" d="M130.36,69.07l-2-1.9a14.91,14.91,0,0,0,5-9.31h-3.49V55.42h15.44q2.54,0,2.22,2.54l-.42,2.12h1.69a2.33,2.33,0,0,1,2.54,2.43v3.17a2.42,2.42,0,0,1-2.65,2.54h-3L145,66h2.54q1,0,1-.74v-2q0-1-1.06-1h-1.27q-2.12-.1-1.9-2l.32-1.59c.07-.63-.21-.92-.85-.85h-7.51v.21a12.7,12.7,0,0,1-.42,1.8h6a1.8,1.8,0,0,1,1.9,1.16,2,2,0,0,1-.32,2A15,15,0,0,1,141,65.47a32.4,32.4,0,0,0,3.28,1.27L143.06,69a32,32,0,0,1-4.13-2,31.4,31.4,0,0,1-4.87,2.12l-1.27-2a18.1,18.1,0,0,0,4-1.69,12.64,12.64,0,0,1-2.12-2.22A21.14,21.14,0,0,1,130.36,69.07Zm-1.59,8.78V75.73h1.69v-4q.1-2.33,2.75-2.43h14.7a2.33,2.33,0,0,1,2.54,2.43v4h2.12v2.12Zm4.55-5.29v3.17h3V71.5h-1.9Q133.43,71.5,133.32,72.56ZM135.12,62A2.4,2.4,0,0,1,134.7,63h2.75a5.92,5.92,0,0,0,.63.53l.63.63a10.44,10.44,0,0,0,1.59-1.48c.21-.21.25-.39.11-.53S140.27,62,140,62ZM139,71.5v4.23h3V71.5Zm5.61,0v4.23h3.07V72.56a1.1,1.1,0,0,0-1.27-1.06Z"/><line class="cls-2" x1="161.29" y1="33.42" x2="177.6" y2="33.42"/><line class="cls-2" x1="153.28" y1="51" x2="161.29" y2="51"/><line class="cls-2" x1="36.98" y1="67.32" x2="27.48" y2="67.32"/><line class="cls-2" x1="30.67" y1="33.42" x2="37.51" y2="33.42"/><line class="cls-2" x1="165.49" y1="67.32" x2="176.34" y2="67.32"/><line class="cls-2" x1="23.9" y1="51" x2="40.31" y2="51"/><rect class="cls-3" width="200" height="99.05"/></g></svg>